# xmcd CD database file
#
# Track frame offsets:
#	150
#	23930
#	46435
#	64562
#	86602
#	114495
#	143200
#	172922
#	202572
#	233285
#	261032
#	276925
#	300187
#
# Disc length: 4079 seconds
#
# Revision: 1
# Processed by: cddbd v1.5.2PL0 Copyright (c) Steve Scherf et al.
# Submitted via: CDex 1.70beta3
#
DISCID=9a0fed0d
DTITLE=小曽根真 - Ballads
DYEAR=2008
DGENRE=Jazz
TTITLE0=She
TTITLE1=A Man on a Cobbled Street
TTITLE2=My Tomorrow
TTITLE3=Asian Dream
TTITLE4=Myst
TTITLE5=You're Not Alone
TTITLE6=Lake Thun
TTITLE7=Nature Boy
TTITLE8=Where Do We Go From Here
TTITLE9=Someone to Watch over Me
TTITLE10=We're All Alone
TTITLE11=Hymn to Freedom
TTITLE12=Reborn
EXTD=YEAR: 2008
EXTT0=
EXTT1=
EXTT2=
EXTT3=
EXTT4=
EXTT5=
EXTT6=
EXTT7=
EXTT8=
EXTT9=
EXTT10=
EXTT11=
EXTT12=
PLAYORDER=
